<?xml version="1.0" encoding="iso-8859-1"?>
<!-- Generator: Adobe Illustrator 19.0.0, SVG Export Plug-In . SVG Version: 6.00 Build 0)  -->
<svg version="1.1" id="Layer_1" xmlns="http://www.w3.org/2000/svg" xmlns:xlink="http://www.w3.org/1999/xlink" x="0px" y="0px"
	 viewBox="0 0 498.877 498.877" style="enable-background:new 0 0 498.877 498.877;" xml:space="preserve">
<path style="fill:#3BABFF;" d="M232.377,344.245l-70.703-70.695c-6.388-6.404-16.762-6.404-23.15,0
	c-6.396,6.38-6.396,16.762,0,23.15l20.63,25.568l-52.894-22.67c-0.402-0.402-0.859-0.709-1.292-1.056v-80.392
	c0-9.043-7.349-16.384-16.376-16.384c-9.043,0-16.384,7.341-16.384,16.384v99.974c0,0.898,0.126,1.772,0.276,2.607
	c-0.819,6.16,1.056,12.635,5.79,17.369l79.336,69.12l-16.4,70.963c0,11.429,9.248,20.685,20.685,20.685h54.595
	c11.429,0,20.693-9.255,20.693-20.685V363.812c0-1.481-0.181-2.907-0.465-4.293C237.946,354.202,236.528,348.396,232.377,344.245z"
	/>
<path style="fill:#007EEF;" d="M143.368,487.219c3.356,6.884,10.35,11.658,18.534,11.658h54.595
	c11.429,0,20.693-9.255,20.693-20.685v-95.996c0-1.481-0.181-2.922-0.465-4.309c1.221-5.317-0.189-11.13-4.348-15.273
	l-70.703-70.703c-6.388-6.404-16.762-6.396-23.15,0c-0.748,0.748-1.402,1.552-1.961,2.395c0.559,0.851,1.213,1.654,1.961,2.402
	l20.63,25.568l-22.709-9.728c0.591,0.898,22.268,9.271,23.048,10.075l-0.339,18.022l-52.894-22.67
	c-0.402-0.41-0.859-0.701-1.292-1.063v-18.361v-62.039c0-9.043-7.349-16.384-16.376-16.384c-9.043,0-16.384,7.341-16.384,16.384
	v81.613c0,0.898,0.126,1.772,0.276,2.607c-0.819,6.16,1.056,12.635,5.79,17.369l79.336,69.12l-3.529,15.281"/>
<path style="fill:#3BABFF;" d="M266.492,344.245l70.703-70.695c6.396-6.404,16.77-6.404,23.158,0c6.396,6.38,6.396,16.762,0,23.15
	l-20.63,25.568l52.894-22.67c0.394-0.402,0.859-0.709,1.284-1.056v-80.392c0-9.043,7.349-16.384,16.376-16.384
	c9.051,0,16.392,7.341,16.392,16.384v99.974c0,0.898-0.126,1.772-0.276,2.607c0.819,6.16-1.063,12.635-5.79,17.369l-79.336,69.12
	l16.392,70.963c0,11.429-9.247,20.685-20.677,20.685h-54.595c-11.429,0-20.693-9.255-20.693-20.685V363.812
	c0-1.481,0.173-2.907,0.465-4.293C260.923,354.202,262.333,348.396,266.492,344.245z"/>
<path style="fill:#007EEF;" d="M355.501,487.219c-3.356,6.884-10.358,11.658-18.527,11.658H282.38
	c-11.429,0-20.693-9.255-20.693-20.685v-95.996c0-1.481,0.173-2.922,0.465-4.309c-1.229-5.317,0.173-11.13,4.34-15.273
	l70.703-70.703c6.396-6.404,16.77-6.396,23.158,0c0.748,0.748,1.394,1.552,1.961,2.395c-0.567,0.851-1.213,1.654-1.961,2.402
	l-20.63,25.568l22.701-9.728c-0.591,0.898-22.244,9.271-23.04,10.075l0.339,18.022l52.894-22.67c0.394-0.41,0.859-0.701,1.284-1.063
	v-18.361v-62.039c0-9.043,7.349-16.384,16.376-16.384c9.051,0,16.392,7.341,16.392,16.384v81.613c0,0.898-0.126,1.772-0.276,2.607
	c0.819,6.16-1.063,12.635-5.79,17.369l-79.336,69.12l3.521,15.281"/>
<path style="fill:#C17E52;" d="M375.666,238.836c0,7.522-6.089,13.619-13.603,13.619H136.806c-7.499,0-13.603-6.089-13.603-13.619
	V13.596C123.203,6.089,129.3,0,136.806,0h225.264c7.507,0,13.603,6.081,13.603,13.596v225.241H375.666z"/>
<path style="fill:#B56841;" d="M375.666,13.596v225.249c0,7.522-6.089,13.619-13.603,13.619H136.806"/>
<path style="fill:#A86743;" d="M123.211,13.596C123.211,6.089,129.308,0,136.814,0h225.264c7.507,0,13.603,6.081,13.603,13.596
	v225.249c0,7.522-6.089,13.619-13.603,13.619"/>
<path style="fill:#EFE1A5;" d="M210.889,0v66.938c0,3.23,2.607,5.829,5.821,5.829h65.441c3.23,0,5.829-2.599,5.829-5.829V0H210.889z
	"/>
<path style="fill:#DBCB86;" d="M282.151,72.767c3.23,0,5.829-2.599,5.829-5.829V0h-77.091"/>
<g>
</g>
<g>
</g>
<g>
</g>
<g>
</g>
<g>
</g>
<g>
</g>
<g>
</g>
<g>
</g>
<g>
</g>
<g>
</g>
<g>
</g>
<g>
</g>
<g>
</g>
<g>
</g>
<g>
</g>
</svg>
